<mxfile host="app.diagrams.net" modified="2021-05-31T19:27:23.776Z" agent="5.0 (X11; CrOS x86_64 13816.64.0) AppleWebKit/537.36 (KHTML, like Gecko) Chrome/90.0.4430.100 Safari/537.36" etag="MUlPJRbyVOKG2pRrNisv" version="14.7.3" type="github">
  <diagram id="C5RBs43oDa-KdzZeNtuy" name="Page-1">
    <mxGraphModel dx="842" dy="422" grid="1" gridSize="10" guides="1" tooltips="1" connect="1" arrows="1" fold="1" page="1" pageScale="1" pageWidth="827" pageHeight="1169" math="0" shadow="0">
      <root>
        <mxCell id="WIyWlLk6GJQsqaUBKTNV-0" />
        <mxCell id="WIyWlLk6GJQsqaUBKTNV-1" parent="WIyWlLk6GJQsqaUBKTNV-0" />
        <mxCell id="T-rhai91PinGiKXaUH5F-0" value="Book" style="swimlane;fontStyle=1;align=center;verticalAlign=top;childLayout=stackLayout;horizontal=1;startSize=26;horizontalStack=0;resizeParent=1;resizeParentMax=0;resizeLast=0;collapsible=1;marginBottom=0;" parent="WIyWlLk6GJQsqaUBKTNV-1" vertex="1">
          <mxGeometry x="110" y="500" width="180" height="370" as="geometry">
            <mxRectangle x="70" y="370" width="100" height="26" as="alternateBounds" />
          </mxGeometry>
        </mxCell>
        <mxCell id="T-rhai91PinGiKXaUH5F-1" value="+isbn: String&#xa;+ rating: double&#xa;+ isAvailable: boolean&#xa;+ author: String&#xa;+ publisher: String&#xa;+ quantity: Integer&#xa;+ borrower: User" style="text;strokeColor=none;fillColor=none;align=left;verticalAlign=top;spacingLeft=4;spacingRight=4;overflow=hidden;rotatable=0;points=[[0,0.5],[1,0.5]];portConstraint=eastwest;" parent="T-rhai91PinGiKXaUH5F-0" vertex="1">
          <mxGeometry y="26" width="180" height="104" as="geometry" />
        </mxCell>
        <mxCell id="T-rhai91PinGiKXaUH5F-2" value="" style="line;strokeWidth=1;fillColor=none;align=left;verticalAlign=middle;spacingTop=-1;spacingLeft=3;spacingRight=3;rotatable=0;labelPosition=right;points=[];portConstraint=eastwest;" parent="T-rhai91PinGiKXaUH5F-0" vertex="1">
          <mxGeometry y="130" width="180" height="8" as="geometry" />
        </mxCell>
        <mxCell id="T-rhai91PinGiKXaUH5F-3" value="Book(BookBuilder)&#xa;+ getIsbn(): String&#xa;+ setIsbn(String): void&#xa;+ getRating(): double&#xa;+ setRating(double): void&#xa;+ isAvailable(): boolean&#xa;+ setAvailable(boolean): void&#xa;+ getAuthor(): String&#xa;+ setAuthor(String): void&#xa;+ getPublisher(): String&#xa;+ setPublisher(String): void&#xa;+ getQuantity(): Integer&#xa;+ setQuantity(Integer): void&#xa;+ getBorrower(): User&#xa;+ issueBookToUser(User): void&#xa;+ returnBook(): void" style="text;strokeColor=none;fillColor=none;align=left;verticalAlign=top;spacingLeft=4;spacingRight=4;overflow=hidden;rotatable=0;points=[[0,0.5],[1,0.5]];portConstraint=eastwest;" parent="T-rhai91PinGiKXaUH5F-0" vertex="1">
          <mxGeometry y="138" width="180" height="232" as="geometry" />
        </mxCell>
        <mxCell id="T-rhai91PinGiKXaUH5F-5" value="«interface»&lt;br&gt;&lt;b&gt;Serializable&lt;/b&gt;" style="html=1;" parent="WIyWlLk6GJQsqaUBKTNV-1" vertex="1">
          <mxGeometry x="480" y="70" width="110" height="50" as="geometry" />
        </mxCell>
        <mxCell id="T-rhai91PinGiKXaUH5F-9" value="" style="endArrow=block;dashed=1;endFill=0;endSize=12;html=1;entryX=0;entryY=0.5;entryDx=0;entryDy=0;exitX=0.5;exitY=0;exitDx=0;exitDy=0;" parent="WIyWlLk6GJQsqaUBKTNV-1" source="T-rhai91PinGiKXaUH5F-45" target="T-rhai91PinGiKXaUH5F-5" edge="1">
          <mxGeometry width="160" relative="1" as="geometry">
            <mxPoint x="320" y="140" as="sourcePoint" />
            <mxPoint x="470" y="440" as="targetPoint" />
            <Array as="points">
              <mxPoint x="320" y="95" />
            </Array>
          </mxGeometry>
        </mxCell>
        <mxCell id="T-rhai91PinGiKXaUH5F-10" value="Extends" style="endArrow=block;endSize=16;endFill=0;html=1;exitX=0.5;exitY=0;exitDx=0;exitDy=0;" parent="WIyWlLk6GJQsqaUBKTNV-1" source="T-rhai91PinGiKXaUH5F-0" target="T-rhai91PinGiKXaUH5F-48" edge="1">
          <mxGeometry width="160" relative="1" as="geometry">
            <mxPoint x="310" y="370" as="sourcePoint" />
            <mxPoint x="150" y="460" as="targetPoint" />
          </mxGeometry>
        </mxCell>
        <mxCell id="T-rhai91PinGiKXaUH5F-11" value="Shelf" style="swimlane;fontStyle=1;align=center;verticalAlign=top;childLayout=stackLayout;horizontal=1;startSize=26;horizontalStack=0;resizeParent=1;resizeParentMax=0;resizeLast=0;collapsible=1;marginBottom=0;" parent="WIyWlLk6GJQsqaUBKTNV-1" vertex="1">
          <mxGeometry x="370" y="500" width="280" height="200" as="geometry" />
        </mxCell>
        <mxCell id="T-rhai91PinGiKXaUH5F-12" value="+ shelfContents: List&lt;CatalogueItem&gt;" style="text;strokeColor=none;fillColor=none;align=left;verticalAlign=top;spacingLeft=4;spacingRight=4;overflow=hidden;rotatable=0;points=[[0,0.5],[1,0.5]];portConstraint=eastwest;" parent="T-rhai91PinGiKXaUH5F-11" vertex="1">
          <mxGeometry y="26" width="280" height="24" as="geometry" />
        </mxCell>
        <mxCell id="T-rhai91PinGiKXaUH5F-13" value="" style="line;strokeWidth=1;fillColor=none;align=left;verticalAlign=middle;spacingTop=-1;spacingLeft=3;spacingRight=3;rotatable=0;labelPosition=right;points=[];portConstraint=eastwest;" parent="T-rhai91PinGiKXaUH5F-11" vertex="1">
          <mxGeometry y="50" width="280" height="8" as="geometry" />
        </mxCell>
        <mxCell id="T-rhai91PinGiKXaUH5F-14" value="Shelf(ShelfBuilder)&#xa;+ getShelfContents(): List&lt;CatalogueItem&gt;&#xa;+ addNewShelfContent(CatalogueItem)&#xa;+ removeShelfContent(CatalogueItem)&#xa;+ sortedShelfByName(): List&lt;CatalogueItem&gt;&#xa;+ sortedShelfByGenre(): List&lt;CatalogueItem&gt;&#xa;+ sortedShelfBooksByRating(): List&lt;Book&gt;&#xa;+ getBooksByGenre(String): List&lt;Book&gt;&#xa;+ findItem(String): CatalogueItem" style="text;strokeColor=none;fillColor=none;align=left;verticalAlign=top;spacingLeft=4;spacingRight=4;overflow=hidden;rotatable=0;points=[[0,0.5],[1,0.5]];portConstraint=eastwest;" parent="T-rhai91PinGiKXaUH5F-11" vertex="1">
          <mxGeometry y="58" width="280" height="142" as="geometry" />
        </mxCell>
        <mxCell id="T-rhai91PinGiKXaUH5F-15" value="Extends" style="endArrow=block;endSize=16;endFill=0;html=1;exitX=0.25;exitY=0;exitDx=0;exitDy=0;" parent="WIyWlLk6GJQsqaUBKTNV-1" source="T-rhai91PinGiKXaUH5F-11" target="T-rhai91PinGiKXaUH5F-48" edge="1">
          <mxGeometry width="160" relative="1" as="geometry">
            <mxPoint x="400" y="490" as="sourcePoint" />
            <mxPoint x="400" y="453" as="targetPoint" />
          </mxGeometry>
        </mxCell>
        <mxCell id="T-rhai91PinGiKXaUH5F-16" value="" style="endArrow=diamondThin;endFill=0;endSize=24;html=1;entryX=0.5;entryY=0;entryDx=0;entryDy=0;exitX=1;exitY=0.5;exitDx=0;exitDy=0;" parent="WIyWlLk6GJQsqaUBKTNV-1" source="T-rhai91PinGiKXaUH5F-48" target="T-rhai91PinGiKXaUH5F-11" edge="1">
          <mxGeometry width="160" relative="1" as="geometry">
            <mxPoint x="480" y="360" as="sourcePoint" />
            <mxPoint x="470" y="440" as="targetPoint" />
            <Array as="points">
              <mxPoint x="510" y="339" />
            </Array>
          </mxGeometry>
        </mxCell>
        <mxCell id="T-rhai91PinGiKXaUH5F-22" value="&lt;span style=&quot;color: rgb(0 , 0 , 0) ; font-family: &amp;#34;helvetica&amp;#34; ; font-size: 12px ; font-style: normal ; font-weight: 400 ; letter-spacing: normal ; text-align: center ; text-indent: 0px ; text-transform: none ; word-spacing: 0px ; background-color: rgb(248 , 249 , 250) ; display: inline ; float: none&quot;&gt;Composite:Composite&lt;br&gt;Builder:Product&lt;br&gt;&lt;/span&gt;" style="shape=card;whiteSpace=wrap;html=1;" parent="WIyWlLk6GJQsqaUBKTNV-1" vertex="1">
          <mxGeometry x="580" y="690" width="160" height="30" as="geometry" />
        </mxCell>
        <mxCell id="T-rhai91PinGiKXaUH5F-23" value="&lt;span style=&quot;color: rgb(0 , 0 , 0) ; font-family: &amp;#34;helvetica&amp;#34; ; font-size: 12px ; font-style: normal ; font-weight: 400 ; letter-spacing: normal ; text-align: center ; text-indent: 0px ; text-transform: none ; word-spacing: 0px ; background-color: rgb(248 , 249 , 250) ; display: inline ; float: none&quot;&gt;Composite:Leaf&lt;br&gt;Builder: Product&lt;br&gt;&lt;/span&gt;" style="shape=card;whiteSpace=wrap;html=1;" parent="WIyWlLk6GJQsqaUBKTNV-1" vertex="1">
          <mxGeometry x="200" y="860" width="160" height="30" as="geometry" />
        </mxCell>
        <mxCell id="T-rhai91PinGiKXaUH5F-25" value="BookBuilder" style="swimlane;fontStyle=1;align=center;verticalAlign=top;childLayout=stackLayout;horizontal=1;startSize=26;horizontalStack=0;resizeParent=1;resizeParentMax=0;resizeLast=0;collapsible=1;marginBottom=0;" parent="WIyWlLk6GJQsqaUBKTNV-1" vertex="1">
          <mxGeometry x="420" y="770" width="230" height="160" as="geometry">
            <mxRectangle x="70" y="370" width="100" height="26" as="alternateBounds" />
          </mxGeometry>
        </mxCell>
        <mxCell id="T-rhai91PinGiKXaUH5F-26" value="+ rating: double&#xa;+ isAvailable: boolean&#xa;+ author: String" style="text;strokeColor=none;fillColor=none;align=left;verticalAlign=top;spacingLeft=4;spacingRight=4;overflow=hidden;rotatable=0;points=[[0,0.5],[1,0.5]];portConstraint=eastwest;" parent="T-rhai91PinGiKXaUH5F-25" vertex="1">
          <mxGeometry y="26" width="230" height="54" as="geometry" />
        </mxCell>
        <mxCell id="T-rhai91PinGiKXaUH5F-27" value="" style="line;strokeWidth=1;fillColor=none;align=left;verticalAlign=middle;spacingTop=-1;spacingLeft=3;spacingRight=3;rotatable=0;labelPosition=right;points=[];portConstraint=eastwest;" parent="T-rhai91PinGiKXaUH5F-25" vertex="1">
          <mxGeometry y="80" width="230" height="8" as="geometry" />
        </mxCell>
        <mxCell id="T-rhai91PinGiKXaUH5F-28" value="+ addRating(double): BookBuilder&#xa;+ addAvailability(boolean): BookBuilder&#xa;+ addAuthor(boolean): BookBuilder&#xa;+ build(): Book" style="text;strokeColor=none;fillColor=none;align=left;verticalAlign=top;spacingLeft=4;spacingRight=4;overflow=hidden;rotatable=0;points=[[0,0.5],[1,0.5]];portConstraint=eastwest;" parent="T-rhai91PinGiKXaUH5F-25" vertex="1">
          <mxGeometry y="88" width="230" height="72" as="geometry" />
        </mxCell>
        <mxCell id="T-rhai91PinGiKXaUH5F-29" value="ShelfBuilder" style="swimlane;fontStyle=1;align=center;verticalAlign=top;childLayout=stackLayout;horizontal=1;startSize=26;horizontalStack=0;resizeParent=1;resizeParentMax=0;resizeLast=0;collapsible=1;marginBottom=0;" parent="WIyWlLk6GJQsqaUBKTNV-1" vertex="1">
          <mxGeometry x="550" y="960" width="240" height="100" as="geometry">
            <mxRectangle x="70" y="370" width="100" height="26" as="alternateBounds" />
          </mxGeometry>
        </mxCell>
        <mxCell id="T-rhai91PinGiKXaUH5F-30" value="+ shelfContents: List&lt;CatalogueItem&gt;" style="text;strokeColor=none;fillColor=none;align=left;verticalAlign=top;spacingLeft=4;spacingRight=4;overflow=hidden;rotatable=0;points=[[0,0.5],[1,0.5]];portConstraint=eastwest;" parent="T-rhai91PinGiKXaUH5F-29" vertex="1">
          <mxGeometry y="26" width="240" height="24" as="geometry" />
        </mxCell>
        <mxCell id="T-rhai91PinGiKXaUH5F-31" value="" style="line;strokeWidth=1;fillColor=none;align=left;verticalAlign=middle;spacingTop=-1;spacingLeft=3;spacingRight=3;rotatable=0;labelPosition=right;points=[];portConstraint=eastwest;" parent="T-rhai91PinGiKXaUH5F-29" vertex="1">
          <mxGeometry y="50" width="240" height="8" as="geometry" />
        </mxCell>
        <mxCell id="T-rhai91PinGiKXaUH5F-32" value="+ addCItem(CatalogueItem): ShelfBuilder&#xa;+ build(): Shelf" style="text;strokeColor=none;fillColor=none;align=left;verticalAlign=top;spacingLeft=4;spacingRight=4;overflow=hidden;rotatable=0;points=[[0,0.5],[1,0.5]];portConstraint=eastwest;" parent="T-rhai91PinGiKXaUH5F-29" vertex="1">
          <mxGeometry y="58" width="240" height="42" as="geometry" />
        </mxCell>
        <mxCell id="T-rhai91PinGiKXaUH5F-33" value="Extends" style="endArrow=block;endSize=16;endFill=0;html=1;exitX=0;exitY=0.5;exitDx=0;exitDy=0;entryX=1;entryY=0.5;entryDx=0;entryDy=0;" parent="WIyWlLk6GJQsqaUBKTNV-1" source="T-rhai91PinGiKXaUH5F-26" target="T-rhai91PinGiKXaUH5F-50" edge="1">
          <mxGeometry width="160" relative="1" as="geometry">
            <mxPoint x="390" y="959" as="sourcePoint" />
            <mxPoint x="360" y="856.25" as="targetPoint" />
          </mxGeometry>
        </mxCell>
        <mxCell id="T-rhai91PinGiKXaUH5F-34" value="Extends" style="endArrow=block;endSize=16;endFill=0;html=1;exitX=0;exitY=0.5;exitDx=0;exitDy=0;entryX=1;entryY=0.5;entryDx=0;entryDy=0;" parent="WIyWlLk6GJQsqaUBKTNV-1" source="T-rhai91PinGiKXaUH5F-30" target="T-rhai91PinGiKXaUH5F-52" edge="1">
          <mxGeometry width="160" relative="1" as="geometry">
            <mxPoint x="455" y="833" as="sourcePoint" />
            <mxPoint x="360" y="930.75" as="targetPoint" />
          </mxGeometry>
        </mxCell>
        <mxCell id="T-rhai91PinGiKXaUH5F-38" value="&lt;span style=&quot;color: rgb(0 , 0 , 0) ; font-family: &amp;#34;helvetica&amp;#34; ; font-size: 12px ; font-style: normal ; font-weight: 400 ; letter-spacing: normal ; text-align: center ; text-indent: 0px ; text-transform: none ; word-spacing: 0px ; background-color: rgb(248 , 249 , 250) ; display: inline ; float: none&quot;&gt;Builder:ConcreteBuilder&lt;/span&gt;" style="shape=card;whiteSpace=wrap;html=1;" parent="WIyWlLk6GJQsqaUBKTNV-1" vertex="1">
          <mxGeometry x="510" y="920" width="160" height="20" as="geometry" />
        </mxCell>
        <mxCell id="T-rhai91PinGiKXaUH5F-39" value="&lt;span style=&quot;color: rgb(0 , 0 , 0) ; font-family: &amp;#34;helvetica&amp;#34; ; font-size: 12px ; font-style: normal ; font-weight: 400 ; letter-spacing: normal ; text-align: center ; text-indent: 0px ; text-transform: none ; word-spacing: 0px ; background-color: rgb(248 , 249 , 250) ; display: inline ; float: none&quot;&gt;Builder:ConcreteBuilder&lt;/span&gt;" style="shape=card;whiteSpace=wrap;html=1;" parent="WIyWlLk6GJQsqaUBKTNV-1" vertex="1">
          <mxGeometry x="690" y="1040" width="160" height="20" as="geometry" />
        </mxCell>
        <mxCell id="T-rhai91PinGiKXaUH5F-45" value="&lt;&lt;Abstract&gt;&gt;&#xa;CatalogueItem" style="swimlane;fontStyle=1;align=center;verticalAlign=top;childLayout=stackLayout;horizontal=1;startSize=40;horizontalStack=0;resizeParent=1;resizeParentMax=0;resizeLast=0;collapsible=1;marginBottom=0;" parent="WIyWlLk6GJQsqaUBKTNV-1" vertex="1">
          <mxGeometry x="190" y="130" width="260" height="320" as="geometry">
            <mxRectangle x="590" y="180" width="120" height="30" as="alternateBounds" />
          </mxGeometry>
        </mxCell>
        <mxCell id="T-rhai91PinGiKXaUH5F-46" value="+ name: String&#xa;+ genre: String&#xa;+ location: String" style="text;strokeColor=none;fillColor=none;align=left;verticalAlign=top;spacingLeft=4;spacingRight=4;overflow=hidden;rotatable=0;points=[[0,0.5],[1,0.5]];portConstraint=eastwest;" parent="T-rhai91PinGiKXaUH5F-45" vertex="1">
          <mxGeometry y="40" width="260" height="50" as="geometry" />
        </mxCell>
        <mxCell id="T-rhai91PinGiKXaUH5F-47" value="" style="line;strokeWidth=1;fillColor=none;align=left;verticalAlign=middle;spacingTop=-1;spacingLeft=3;spacingRight=3;rotatable=0;labelPosition=right;points=[];portConstraint=eastwest;" parent="T-rhai91PinGiKXaUH5F-45" vertex="1">
          <mxGeometry y="90" width="260" height="8" as="geometry" />
        </mxCell>
        <mxCell id="T-rhai91PinGiKXaUH5F-48" value="CatalogueItem(CatalogueItemBuilder)&#xa;+ getName(): String&#xa;+ setName(String): void&#xa;+ getGenre(): String&#xa;+ setGenre(String): void&#xa;+ getLocation(): String&#xa;+ setLocation(String): void&#xa;+ getShelfContents(): List&lt;CatalogueItem&gt;&#xa;+ addNewShelfContent(CatalogueItem)&#xa;+ removeShelfContent(CatalogueItem)&#xa;+ sortedShelfByName(): List&lt;CatalogueItem&gt;&#xa;+ sortedShelfByGenre(): List&lt;CatalogueItem&gt;&#xa;+ sortedShelfBooksByRating(): List&lt;Book&gt;&#xa;+ getBooksByGenre(String): List&lt;Book&gt;&#xa;+ findItem(String): CatalogueItem" style="text;strokeColor=none;fillColor=none;align=left;verticalAlign=top;spacingLeft=4;spacingRight=4;overflow=hidden;rotatable=0;points=[[0,0.5],[1,0.5]];portConstraint=eastwest;" parent="T-rhai91PinGiKXaUH5F-45" vertex="1">
          <mxGeometry y="98" width="260" height="222" as="geometry" />
        </mxCell>
        <mxCell id="T-rhai91PinGiKXaUH5F-21" value="&lt;span style=&quot;color: rgb(0, 0, 0); font-family: helvetica; font-size: 12px; font-style: normal; font-weight: 400; letter-spacing: normal; text-align: center; text-indent: 0px; text-transform: none; word-spacing: 0px; background-color: rgb(248, 249, 250); display: inline; float: none;&quot;&gt;Composite:Component&lt;/span&gt;" style="shape=card;whiteSpace=wrap;html=1;" parent="WIyWlLk6GJQsqaUBKTNV-1" vertex="1">
          <mxGeometry x="379" y="270" width="160" height="20" as="geometry" />
        </mxCell>
        <mxCell id="T-rhai91PinGiKXaUH5F-49" value="&lt;&lt;Abstract&gt;&gt;&#xa;CatalogueItemBuilder" style="swimlane;fontStyle=1;align=center;verticalAlign=top;childLayout=stackLayout;horizontal=1;startSize=40;horizontalStack=0;resizeParent=1;resizeParentMax=0;resizeLast=0;collapsible=1;marginBottom=0;" parent="WIyWlLk6GJQsqaUBKTNV-1" vertex="1">
          <mxGeometry x="90" y="910" width="260" height="160" as="geometry" />
        </mxCell>
        <mxCell id="T-rhai91PinGiKXaUH5F-50" value="+ name: String&#xa;+ genre: String&#xa;+ location: String&#xa;" style="text;strokeColor=none;fillColor=none;align=left;verticalAlign=top;spacingLeft=4;spacingRight=4;overflow=hidden;rotatable=0;points=[[0,0.5],[1,0.5]];portConstraint=eastwest;" parent="T-rhai91PinGiKXaUH5F-49" vertex="1">
          <mxGeometry y="40" width="260" height="50" as="geometry" />
        </mxCell>
        <mxCell id="T-rhai91PinGiKXaUH5F-51" value="" style="line;strokeWidth=1;fillColor=none;align=left;verticalAlign=middle;spacingTop=-1;spacingLeft=3;spacingRight=3;rotatable=0;labelPosition=right;points=[];portConstraint=eastwest;" parent="T-rhai91PinGiKXaUH5F-49" vertex="1">
          <mxGeometry y="90" width="260" height="8" as="geometry" />
        </mxCell>
        <mxCell id="T-rhai91PinGiKXaUH5F-52" value="+ addName(String): CatalogueItemBuilder&#xa;+ addGenre(String): CatalogueItemBuilder&#xa;+ addLocation(String): CatalogueItemBuilder" style="text;strokeColor=none;fillColor=none;align=left;verticalAlign=top;spacingLeft=4;spacingRight=4;overflow=hidden;rotatable=0;points=[[0,0.5],[1,0.5]];portConstraint=eastwest;" parent="T-rhai91PinGiKXaUH5F-49" vertex="1">
          <mxGeometry y="98" width="260" height="62" as="geometry" />
        </mxCell>
        <mxCell id="T-rhai91PinGiKXaUH5F-37" value="&lt;span style=&quot;color: rgb(0 , 0 , 0) ; font-family: &amp;#34;helvetica&amp;#34; ; font-size: 12px ; font-style: normal ; font-weight: 400 ; letter-spacing: normal ; text-align: center ; text-indent: 0px ; text-transform: none ; word-spacing: 0px ; background-color: rgb(248 , 249 , 250) ; display: inline ; float: none&quot;&gt;Builder:Builder&lt;/span&gt;" style="shape=card;whiteSpace=wrap;html=1;" parent="WIyWlLk6GJQsqaUBKTNV-1" vertex="1">
          <mxGeometry x="219" y="1060" width="160" height="20" as="geometry" />
        </mxCell>
        <mxCell id="T-rhai91PinGiKXaUH5F-53" value="&lt;&lt;Interface&gt;&gt;&#xa;Manager" style="swimlane;fontStyle=1;align=center;verticalAlign=top;childLayout=stackLayout;horizontal=1;startSize=40;horizontalStack=0;resizeParent=1;resizeParentMax=0;resizeLast=0;collapsible=1;marginBottom=0;" parent="WIyWlLk6GJQsqaUBKTNV-1" vertex="1">
          <mxGeometry x="740" y="62" width="240" height="188" as="geometry" />
        </mxCell>
        <mxCell id="T-rhai91PinGiKXaUH5F-55" value="" style="line;strokeWidth=1;fillColor=none;align=left;verticalAlign=middle;spacingTop=-1;spacingLeft=3;spacingRight=3;rotatable=0;labelPosition=right;points=[];portConstraint=eastwest;" parent="T-rhai91PinGiKXaUH5F-53" vertex="1">
          <mxGeometry y="40" width="240" height="8" as="geometry" />
        </mxCell>
        <mxCell id="T-rhai91PinGiKXaUH5F-56" value="+ addShelfToCatalogue(Shelf): void&#xa;+ addBookToCatalogue(Book): void&#xa;+ getShelvesByGenre(String): List&lt;Shelf&gt;&#xa;+ getAllBooksByGenre(String): List&lt;Book&gt;&#xa;+ sortCatalogueByRating(): List&lt;Book&gt;&#xa;+ findSpecificBook(String): Book&#xa;+ getAllIssuedBooks(): List&lt;Book&gt;&#xa;+ issueBookToUser(String, User): void&#xa;+ returnBook(String): void" style="text;strokeColor=none;fillColor=none;align=left;verticalAlign=top;spacingLeft=4;spacingRight=4;overflow=hidden;rotatable=0;points=[[0,0.5],[1,0.5]];portConstraint=eastwest;" parent="T-rhai91PinGiKXaUH5F-53" vertex="1">
          <mxGeometry y="48" width="240" height="140" as="geometry" />
        </mxCell>
        <mxCell id="T-rhai91PinGiKXaUH5F-60" value="CatalogueManager" style="swimlane;fontStyle=1;align=center;verticalAlign=top;childLayout=stackLayout;horizontal=1;startSize=26;horizontalStack=0;resizeParent=1;resizeParentMax=0;resizeLast=0;collapsible=1;marginBottom=0;" parent="WIyWlLk6GJQsqaUBKTNV-1" vertex="1">
          <mxGeometry x="590" y="300" width="240" height="190" as="geometry" />
        </mxCell>
        <mxCell id="T-rhai91PinGiKXaUH5F-61" value="+ catalogue: List&lt;Shelf&gt;" style="text;strokeColor=none;fillColor=none;align=left;verticalAlign=top;spacingLeft=4;spacingRight=4;overflow=hidden;rotatable=0;points=[[0,0.5],[1,0.5]];portConstraint=eastwest;" parent="T-rhai91PinGiKXaUH5F-60" vertex="1">
          <mxGeometry y="26" width="240" height="26" as="geometry" />
        </mxCell>
        <mxCell id="T-rhai91PinGiKXaUH5F-62" value="" style="line;strokeWidth=1;fillColor=none;align=left;verticalAlign=middle;spacingTop=-1;spacingLeft=3;spacingRight=3;rotatable=0;labelPosition=right;points=[];portConstraint=eastwest;" parent="T-rhai91PinGiKXaUH5F-60" vertex="1">
          <mxGeometry y="52" width="240" height="8" as="geometry" />
        </mxCell>
        <mxCell id="T-rhai91PinGiKXaUH5F-63" value="+ addShelfToCatalogue(Shelf): void&#xa;+ addBookToCatalogue(Book): void&#xa;+ getShelvesByGenre(String): List&lt;Shelf&gt;&#xa;+ getAllBooksByGenre(String): List&lt;Book&gt;&#xa;+ sortCatalogueByRating(): List&lt;Book&gt;&#xa;+ findSpecificBook(String): Book&#xa;+ getAllIssuedBooks(): List&lt;Book&gt;&#xa;+ issueBookToUser(String, User): void&#xa;+ returnBook(String): void" style="text;strokeColor=none;fillColor=none;align=left;verticalAlign=top;spacingLeft=4;spacingRight=4;overflow=hidden;rotatable=0;points=[[0,0.5],[1,0.5]];portConstraint=eastwest;" parent="T-rhai91PinGiKXaUH5F-60" vertex="1">
          <mxGeometry y="60" width="240" height="130" as="geometry" />
        </mxCell>
        <mxCell id="T-rhai91PinGiKXaUH5F-64" value="CatalogueManagerProxy" style="swimlane;fontStyle=1;align=center;verticalAlign=top;childLayout=stackLayout;horizontal=1;startSize=26;horizontalStack=0;resizeParent=1;resizeParentMax=0;resizeLast=0;collapsible=1;marginBottom=0;" parent="WIyWlLk6GJQsqaUBKTNV-1" vertex="1">
          <mxGeometry x="910" y="300" width="240" height="250" as="geometry" />
        </mxCell>
        <mxCell id="T-rhai91PinGiKXaUH5F-65" value="+ catalogue: List&lt;Shelf&gt;&#xa;+ user: User&#xa;+ validUsers: List&lt;User&gt;" style="text;strokeColor=none;fillColor=none;align=left;verticalAlign=top;spacingLeft=4;spacingRight=4;overflow=hidden;rotatable=0;points=[[0,0.5],[1,0.5]];portConstraint=eastwest;" parent="T-rhai91PinGiKXaUH5F-64" vertex="1">
          <mxGeometry y="26" width="240" height="54" as="geometry" />
        </mxCell>
        <mxCell id="T-rhai91PinGiKXaUH5F-66" value="" style="line;strokeWidth=1;fillColor=none;align=left;verticalAlign=middle;spacingTop=-1;spacingLeft=3;spacingRight=3;rotatable=0;labelPosition=right;points=[];portConstraint=eastwest;" parent="T-rhai91PinGiKXaUH5F-64" vertex="1">
          <mxGeometry y="80" width="240" height="8" as="geometry" />
        </mxCell>
        <mxCell id="T-rhai91PinGiKXaUH5F-67" value="+ addShelfToCatalogue(Shelf): void&#xa;+ addBookToCatalogue(Book): void&#xa;+ getShelvesByGenre(String): List&lt;Shelf&gt;&#xa;+ getAllBooksByGenre(String): List&lt;Book&gt;&#xa;+ sortCatalogueByRating(): List&lt;Book&gt;&#xa;+ findSpecificBook(String): Book&#xa;+getAllIssuedBooks(): List&lt;Book&gt;&#xa;+ issueBookToUser(String, User): void&#xa;+ returnBook(String): void&#xa;+ addUserToLibrary(User): void&#xa;+ removeUserFromLibrary(User): void" style="text;strokeColor=none;fillColor=none;align=left;verticalAlign=top;spacingLeft=4;spacingRight=4;overflow=hidden;rotatable=0;points=[[0,0.5],[1,0.5]];portConstraint=eastwest;" parent="T-rhai91PinGiKXaUH5F-64" vertex="1">
          <mxGeometry y="88" width="240" height="162" as="geometry" />
        </mxCell>
        <mxCell id="T-rhai91PinGiKXaUH5F-70" value="Extends" style="endArrow=block;endSize=16;endFill=0;html=1;exitX=0.75;exitY=0;exitDx=0;exitDy=0;" parent="WIyWlLk6GJQsqaUBKTNV-1" source="T-rhai91PinGiKXaUH5F-60" target="T-rhai91PinGiKXaUH5F-56" edge="1">
          <mxGeometry width="160" relative="1" as="geometry">
            <mxPoint x="630" y="340" as="sourcePoint" />
            <mxPoint x="790" y="340" as="targetPoint" />
          </mxGeometry>
        </mxCell>
        <mxCell id="T-rhai91PinGiKXaUH5F-71" value="Extends" style="endArrow=block;endSize=16;endFill=0;html=1;exitX=0.5;exitY=0;exitDx=0;exitDy=0;" parent="WIyWlLk6GJQsqaUBKTNV-1" source="T-rhai91PinGiKXaUH5F-64" target="T-rhai91PinGiKXaUH5F-56" edge="1">
          <mxGeometry width="160" relative="1" as="geometry">
            <mxPoint x="760" y="380" as="sourcePoint" />
            <mxPoint x="920" y="380" as="targetPoint" />
          </mxGeometry>
        </mxCell>
        <mxCell id="T-rhai91PinGiKXaUH5F-73" value="&lt;span style=&quot;color: rgb(0 , 0 , 0) ; font-family: &amp;#34;helvetica&amp;#34; ; font-size: 12px ; font-style: normal ; font-weight: 400 ; letter-spacing: normal ; text-align: center ; text-indent: 0px ; text-transform: none ; word-spacing: 0px ; background-color: rgb(248 , 249 , 250) ; display: inline ; float: none&quot;&gt;Composite:Client&lt;br&gt;Proxy:RealSubject&lt;br&gt;&lt;/span&gt;" style="shape=card;whiteSpace=wrap;html=1;" parent="WIyWlLk6GJQsqaUBKTNV-1" vertex="1">
          <mxGeometry x="730" y="470" width="160" height="30" as="geometry" />
        </mxCell>
        <mxCell id="T-rhai91PinGiKXaUH5F-79" value="&lt;span style=&quot;color: rgb(0 , 0 , 0) ; font-family: &amp;#34;helvetica&amp;#34; ; font-size: 12px ; font-style: normal ; font-weight: 400 ; letter-spacing: normal ; text-align: center ; text-indent: 0px ; text-transform: none ; word-spacing: 0px ; background-color: rgb(248 , 249 , 250) ; display: inline ; float: none&quot;&gt;Proxy:Subject&lt;/span&gt;" style="shape=card;whiteSpace=wrap;html=1;" parent="WIyWlLk6GJQsqaUBKTNV-1" vertex="1">
          <mxGeometry x="900" y="230" width="160" height="20" as="geometry" />
        </mxCell>
        <mxCell id="T-rhai91PinGiKXaUH5F-80" value="&lt;span style=&quot;color: rgb(0 , 0 , 0) ; font-family: &amp;#34;helvetica&amp;#34; ; font-size: 12px ; font-style: normal ; font-weight: 400 ; letter-spacing: normal ; text-align: center ; text-indent: 0px ; text-transform: none ; word-spacing: 0px ; background-color: rgb(248 , 249 , 250) ; display: inline ; float: none&quot;&gt;Proxy:Proxy&lt;/span&gt;" style="shape=card;whiteSpace=wrap;html=1;" parent="WIyWlLk6GJQsqaUBKTNV-1" vertex="1">
          <mxGeometry x="1090" y="490" width="160" height="20" as="geometry" />
        </mxCell>
        <mxCell id="T-rhai91PinGiKXaUH5F-81" value="Use" style="endArrow=open;endSize=12;dashed=1;html=1;exitX=0;exitY=0.5;exitDx=0;exitDy=0;entryX=1;entryY=0.5;entryDx=0;entryDy=0;" parent="WIyWlLk6GJQsqaUBKTNV-1" source="T-rhai91PinGiKXaUH5F-65" target="T-rhai91PinGiKXaUH5F-61" edge="1">
          <mxGeometry width="160" relative="1" as="geometry">
            <mxPoint x="830" y="280" as="sourcePoint" />
            <mxPoint x="990" y="280" as="targetPoint" />
          </mxGeometry>
        </mxCell>
        <mxCell id="T-rhai91PinGiKXaUH5F-83" value="Use" style="endArrow=open;endSize=12;dashed=1;html=1;entryX=1;entryY=0.5;entryDx=0;entryDy=0;" parent="WIyWlLk6GJQsqaUBKTNV-1" target="T-rhai91PinGiKXaUH5F-46" edge="1">
          <mxGeometry width="160" relative="1" as="geometry">
            <mxPoint x="650" y="300" as="sourcePoint" />
            <mxPoint x="690" y="350" as="targetPoint" />
          </mxGeometry>
        </mxCell>
        <mxCell id="T-rhai91PinGiKXaUH5F-84" value="return" style="html=1;verticalAlign=bottom;endArrow=open;dashed=1;endSize=8;entryX=1;entryY=0.5;entryDx=0;entryDy=0;exitX=0.25;exitY=0;exitDx=0;exitDy=0;" parent="WIyWlLk6GJQsqaUBKTNV-1" source="T-rhai91PinGiKXaUH5F-25" target="T-rhai91PinGiKXaUH5F-3" edge="1">
          <mxGeometry relative="1" as="geometry">
            <mxPoint x="650" y="810" as="sourcePoint" />
            <mxPoint x="570" y="810" as="targetPoint" />
          </mxGeometry>
        </mxCell>
        <mxCell id="T-rhai91PinGiKXaUH5F-85" value="return" style="html=1;verticalAlign=bottom;endArrow=open;dashed=1;endSize=8;exitX=0.75;exitY=0;exitDx=0;exitDy=0;entryX=1;entryY=0.5;entryDx=0;entryDy=0;" parent="WIyWlLk6GJQsqaUBKTNV-1" source="T-rhai91PinGiKXaUH5F-29" target="T-rhai91PinGiKXaUH5F-14" edge="1">
          <mxGeometry relative="1" as="geometry">
            <mxPoint x="640" y="810" as="sourcePoint" />
            <mxPoint x="560" y="810" as="targetPoint" />
          </mxGeometry>
        </mxCell>
        <mxCell id="T-rhai91PinGiKXaUH5F-86" value="User" style="swimlane;fontStyle=1;align=center;verticalAlign=top;childLayout=stackLayout;horizontal=1;startSize=26;horizontalStack=0;resizeParent=1;resizeParentMax=0;resizeLast=0;collapsible=1;marginBottom=0;" parent="WIyWlLk6GJQsqaUBKTNV-1" vertex="1">
          <mxGeometry x="900" y="560" width="210" height="280" as="geometry" />
        </mxCell>
        <mxCell id="T-rhai91PinGiKXaUH5F-87" value="- name: String&#xa;- password: String&#xa;+ email: String&#xa;+ address: String&#xa;+ contact: String&#xa;+ hasAdminAccess: boolean" style="text;strokeColor=none;fillColor=none;align=left;verticalAlign=top;spacingLeft=4;spacingRight=4;overflow=hidden;rotatable=0;points=[[0,0.5],[1,0.5]];portConstraint=eastwest;" parent="T-rhai91PinGiKXaUH5F-86" vertex="1">
          <mxGeometry y="26" width="210" height="94" as="geometry" />
        </mxCell>
        <mxCell id="T-rhai91PinGiKXaUH5F-88" value="" style="line;strokeWidth=1;fillColor=none;align=left;verticalAlign=middle;spacingTop=-1;spacingLeft=3;spacingRight=3;rotatable=0;labelPosition=right;points=[];portConstraint=eastwest;" parent="T-rhai91PinGiKXaUH5F-86" vertex="1">
          <mxGeometry y="120" width="210" height="8" as="geometry" />
        </mxCell>
        <mxCell id="T-rhai91PinGiKXaUH5F-89" value="User(UserBuilder)&#xa;+ getName(): String&#xa;+ getPassword(): String&#xa;+ getEmail(): String&#xa;+ setEmail(String): void&#xa;+ getAddress(): String&#xa;+ setAddress(String): void&#xa;+ getContact(): String&#xa;+ setContact(String): void&#xa;+ verifyCredentials(String): boolean" style="text;strokeColor=none;fillColor=none;align=left;verticalAlign=top;spacingLeft=4;spacingRight=4;overflow=hidden;rotatable=0;points=[[0,0.5],[1,0.5]];portConstraint=eastwest;" parent="T-rhai91PinGiKXaUH5F-86" vertex="1">
          <mxGeometry y="128" width="210" height="152" as="geometry" />
        </mxCell>
        <mxCell id="T-rhai91PinGiKXaUH5F-90" value="LibrarianUser" style="swimlane;fontStyle=1;align=center;verticalAlign=top;childLayout=stackLayout;horizontal=1;startSize=26;horizontalStack=0;resizeParent=1;resizeParentMax=0;resizeLast=0;collapsible=1;marginBottom=0;" parent="WIyWlLk6GJQsqaUBKTNV-1" vertex="1">
          <mxGeometry x="900" y="900" width="210" height="60" as="geometry" />
        </mxCell>
        <mxCell id="T-rhai91PinGiKXaUH5F-92" value="" style="line;strokeWidth=1;fillColor=none;align=left;verticalAlign=middle;spacingTop=-1;spacingLeft=3;spacingRight=3;rotatable=0;labelPosition=right;points=[];portConstraint=eastwest;" parent="T-rhai91PinGiKXaUH5F-90" vertex="1">
          <mxGeometry y="26" width="210" height="8" as="geometry" />
        </mxCell>
        <mxCell id="T-rhai91PinGiKXaUH5F-93" value="LibrarianUser(UserBuilder)" style="text;strokeColor=none;fillColor=none;align=left;verticalAlign=top;spacingLeft=4;spacingRight=4;overflow=hidden;rotatable=0;points=[[0,0.5],[1,0.5]];portConstraint=eastwest;" parent="T-rhai91PinGiKXaUH5F-90" vertex="1">
          <mxGeometry y="34" width="210" height="26" as="geometry" />
        </mxCell>
        <mxCell id="T-rhai91PinGiKXaUH5F-94" value="AdminUser" style="swimlane;fontStyle=1;align=center;verticalAlign=top;childLayout=stackLayout;horizontal=1;startSize=26;horizontalStack=0;resizeParent=1;resizeParentMax=0;resizeLast=0;collapsible=1;marginBottom=0;" parent="WIyWlLk6GJQsqaUBKTNV-1" vertex="1">
          <mxGeometry x="900" y="1010" width="210" height="60" as="geometry" />
        </mxCell>
        <mxCell id="T-rhai91PinGiKXaUH5F-95" value="" style="line;strokeWidth=1;fillColor=none;align=left;verticalAlign=middle;spacingTop=-1;spacingLeft=3;spacingRight=3;rotatable=0;labelPosition=right;points=[];portConstraint=eastwest;" parent="T-rhai91PinGiKXaUH5F-94" vertex="1">
          <mxGeometry y="26" width="210" height="8" as="geometry" />
        </mxCell>
        <mxCell id="T-rhai91PinGiKXaUH5F-96" value="AdminUser(UserBuilder)" style="text;strokeColor=none;fillColor=none;align=left;verticalAlign=top;spacingLeft=4;spacingRight=4;overflow=hidden;rotatable=0;points=[[0,0.5],[1,0.5]];portConstraint=eastwest;" parent="T-rhai91PinGiKXaUH5F-94" vertex="1">
          <mxGeometry y="34" width="210" height="26" as="geometry" />
        </mxCell>
        <mxCell id="T-rhai91PinGiKXaUH5F-97" value="Extends" style="endArrow=block;endSize=16;endFill=0;html=1;exitX=0.5;exitY=0;exitDx=0;exitDy=0;" parent="WIyWlLk6GJQsqaUBKTNV-1" source="T-rhai91PinGiKXaUH5F-90" target="T-rhai91PinGiKXaUH5F-89" edge="1">
          <mxGeometry width="160" relative="1" as="geometry">
            <mxPoint x="953" y="820" as="sourcePoint" />
            <mxPoint x="1113" y="820" as="targetPoint" />
          </mxGeometry>
        </mxCell>
        <mxCell id="T-rhai91PinGiKXaUH5F-98" value="Extends" style="endArrow=block;endSize=16;endFill=0;html=1;exitX=0.5;exitY=0;exitDx=0;exitDy=0;" parent="WIyWlLk6GJQsqaUBKTNV-1" source="T-rhai91PinGiKXaUH5F-94" target="T-rhai91PinGiKXaUH5F-93" edge="1">
          <mxGeometry width="160" relative="1" as="geometry">
            <mxPoint x="860" y="900" as="sourcePoint" />
            <mxPoint x="1140" y="980" as="targetPoint" />
          </mxGeometry>
        </mxCell>
        <mxCell id="T-rhai91PinGiKXaUH5F-99" value="UserBuilder" style="swimlane;fontStyle=1;align=center;verticalAlign=top;childLayout=stackLayout;horizontal=1;startSize=26;horizontalStack=0;resizeParent=1;resizeParentMax=0;resizeLast=0;collapsible=1;marginBottom=0;" parent="WIyWlLk6GJQsqaUBKTNV-1" vertex="1">
          <mxGeometry x="1200" y="700" width="220" height="210" as="geometry" />
        </mxCell>
        <mxCell id="T-rhai91PinGiKXaUH5F-100" value="- name: String&#xa;- password: String&#xa;+ email: String&#xa;+ address: String&#xa;+ contact: String" style="text;strokeColor=none;fillColor=none;align=left;verticalAlign=top;spacingLeft=4;spacingRight=4;overflow=hidden;rotatable=0;points=[[0,0.5],[1,0.5]];portConstraint=eastwest;" parent="T-rhai91PinGiKXaUH5F-99" vertex="1">
          <mxGeometry y="26" width="220" height="74" as="geometry" />
        </mxCell>
        <mxCell id="T-rhai91PinGiKXaUH5F-101" value="" style="line;strokeWidth=1;fillColor=none;align=left;verticalAlign=middle;spacingTop=-1;spacingLeft=3;spacingRight=3;rotatable=0;labelPosition=right;points=[];portConstraint=eastwest;" parent="T-rhai91PinGiKXaUH5F-99" vertex="1">
          <mxGeometry y="100" width="220" height="8" as="geometry" />
        </mxCell>
        <mxCell id="T-rhai91PinGiKXaUH5F-102" value="+ addEmail(String): UserBuilder&#xa;+ addAddress(String): UserBuilder&#xa;+ addContact(String): UserBuilder&#xa;+ buildUser(): User&#xa;+ buildLibrarianUser(): LibrarianUser&#xa;+ buildAdminUser(): AdminUser" style="text;strokeColor=none;fillColor=none;align=left;verticalAlign=top;spacingLeft=4;spacingRight=4;overflow=hidden;rotatable=0;points=[[0,0.5],[1,0.5]];portConstraint=eastwest;" parent="T-rhai91PinGiKXaUH5F-99" vertex="1">
          <mxGeometry y="108" width="220" height="102" as="geometry" />
        </mxCell>
        <mxCell id="T-rhai91PinGiKXaUH5F-103" value="return" style="html=1;verticalAlign=bottom;endArrow=open;dashed=1;endSize=8;exitX=0;exitY=0.5;exitDx=0;exitDy=0;entryX=1;entryY=0.5;entryDx=0;entryDy=0;" parent="WIyWlLk6GJQsqaUBKTNV-1" source="T-rhai91PinGiKXaUH5F-100" target="T-rhai91PinGiKXaUH5F-89" edge="1">
          <mxGeometry relative="1" as="geometry">
            <mxPoint x="870" y="790" as="sourcePoint" />
            <mxPoint x="790" y="790" as="targetPoint" />
          </mxGeometry>
        </mxCell>
        <mxCell id="T-rhai91PinGiKXaUH5F-104" value="&lt;span style=&quot;color: rgb(0 , 0 , 0) ; font-family: &amp;#34;helvetica&amp;#34; ; font-size: 12px ; font-style: normal ; font-weight: 400 ; letter-spacing: normal ; text-align: center ; text-indent: 0px ; text-transform: none ; word-spacing: 0px ; background-color: rgb(248 , 249 , 250) ; display: inline ; float: none&quot;&gt;Builder:Product&lt;/span&gt;" style="shape=card;whiteSpace=wrap;html=1;" parent="WIyWlLk6GJQsqaUBKTNV-1" vertex="1">
          <mxGeometry x="1020" y="700" width="160" height="20" as="geometry" />
        </mxCell>
        <mxCell id="T-rhai91PinGiKXaUH5F-105" value="&lt;span style=&quot;color: rgb(0 , 0 , 0) ; font-family: &amp;#34;helvetica&amp;#34; ; font-size: 12px ; font-style: normal ; font-weight: 400 ; letter-spacing: normal ; text-align: center ; text-indent: 0px ; text-transform: none ; word-spacing: 0px ; background-color: rgb(248 , 249 , 250) ; display: inline ; float: none&quot;&gt;Builder:ConcreteBuilder&lt;/span&gt;" style="shape=card;whiteSpace=wrap;html=1;" parent="WIyWlLk6GJQsqaUBKTNV-1" vertex="1">
          <mxGeometry x="1280" y="900" width="160" height="20" as="geometry" />
        </mxCell>
        <mxCell id="T-rhai91PinGiKXaUH5F-107" value="&lt;span style=&quot;color: rgb(0 , 0 , 0) ; font-family: &amp;#34;helvetica&amp;#34; ; font-size: 12px ; font-style: normal ; font-weight: 400 ; letter-spacing: normal ; text-align: center ; text-indent: 0px ; text-transform: none ; word-spacing: 0px ; background-color: rgb(248 , 249 , 250) ; display: inline ; float: none&quot;&gt;Builder:Product&lt;/span&gt;" style="shape=card;whiteSpace=wrap;html=1;" parent="WIyWlLk6GJQsqaUBKTNV-1" vertex="1">
          <mxGeometry x="1040" y="1060" width="160" height="20" as="geometry" />
        </mxCell>
        <mxCell id="T-rhai91PinGiKXaUH5F-108" value="return" style="html=1;verticalAlign=bottom;endArrow=open;dashed=1;endSize=8;exitX=0;exitY=0.5;exitDx=0;exitDy=0;entryX=1;entryY=0.5;entryDx=0;entryDy=0;" parent="WIyWlLk6GJQsqaUBKTNV-1" source="T-rhai91PinGiKXaUH5F-100" target="T-rhai91PinGiKXaUH5F-93" edge="1">
          <mxGeometry relative="1" as="geometry">
            <mxPoint x="1210" y="773" as="sourcePoint" />
            <mxPoint x="1120" y="774" as="targetPoint" />
          </mxGeometry>
        </mxCell>
        <mxCell id="T-rhai91PinGiKXaUH5F-109" value="return" style="html=1;verticalAlign=bottom;endArrow=open;dashed=1;endSize=8;exitX=0;exitY=0.5;exitDx=0;exitDy=0;entryX=1;entryY=0.5;entryDx=0;entryDy=0;" parent="WIyWlLk6GJQsqaUBKTNV-1" source="T-rhai91PinGiKXaUH5F-100" target="T-rhai91PinGiKXaUH5F-96" edge="1">
          <mxGeometry relative="1" as="geometry">
            <mxPoint x="1220" y="783" as="sourcePoint" />
            <mxPoint x="1130" y="784" as="targetPoint" />
          </mxGeometry>
        </mxCell>
        <mxCell id="T-rhai91PinGiKXaUH5F-106" value="&lt;span style=&quot;color: rgb(0 , 0 , 0) ; font-family: &amp;#34;helvetica&amp;#34; ; font-size: 12px ; font-style: normal ; font-weight: 400 ; letter-spacing: normal ; text-align: center ; text-indent: 0px ; text-transform: none ; word-spacing: 0px ; background-color: rgb(248 , 249 , 250) ; display: inline ; float: none&quot;&gt;Builder:Product&lt;/span&gt;" style="shape=card;whiteSpace=wrap;html=1;" parent="WIyWlLk6GJQsqaUBKTNV-1" vertex="1">
          <mxGeometry x="1040" y="950" width="160" height="20" as="geometry" />
        </mxCell>
      </root>
    </mxGraphModel>
  </diagram>
</mxfile>
